<svg width="14" height="14" viewBox="0 0 14 14" fill="none" xmlns="http://www.w3.org/2000/svg">
<path d="M6.66671 13.3333C7.8756 13.3333 8.9956 13.0311 10.0267 12.4266C11.0312 11.8311 11.8312 11.0311 12.4267 10.0266C13.0312 8.99553 13.3334 7.87554 13.3334 6.66665C13.3334 5.45776 13.0312 4.33776 12.4267 3.30665C11.8312 2.3022 11.0312 1.5022 10.0267 0.906646C8.9956 0.302201 7.8756 -2.09808e-05 6.66671 -2.09808e-05C5.45782 -2.09808e-05 4.33782 0.302201 3.30671 0.906646C2.30226 1.5022 1.50226 2.3022 0.906707 3.30665C0.302262 4.33776 4.00543e-05 5.45776 4.00543e-05 6.66665C4.00543e-05 7.87554 0.302262 8.99553 0.906707 10.0266C1.50226 11.0311 2.30226 11.8311 3.30671 12.4266C4.33782 13.0311 5.45782 13.3333 6.66671 13.3333ZM6.66671 12C5.69782 12 4.80004 11.7555 3.97337 11.2666C3.17337 10.7955 2.53782 10.16 2.06671 9.35998C1.57782 8.53331 1.33337 7.63554 1.33337 6.66665C1.33337 5.69776 1.57782 4.79998 2.06671 3.97331C2.53782 3.17331 3.17337 2.53776 3.97337 2.06665C4.80004 1.57776 5.69782 1.33331 6.66671 1.33331C7.6356 1.33331 8.53337 1.57776 9.36004 2.06665C10.16 2.53776 10.7956 3.17331 11.2667 3.97331C11.7556 4.79998 12 5.69776 12 6.66665C12 7.63554 11.7556 8.53331 11.2667 9.35998C10.7956 10.16 10.16 10.7955 9.36004 11.2666C8.53337 11.7555 7.6356 12 6.66671 12ZM10 7.33331H8.66671C8.66671 7.69776 8.57782 8.03331 8.40004 8.33998C8.22226 8.64665 7.98004 8.88887 7.67337 9.06665C7.36671 9.24442 7.03115 9.33331 6.66671 9.33331C6.30226 9.33331 5.96671 9.24442 5.66004 9.06665C5.35337 8.88887 5.11115 8.64665 4.93337 8.33998C4.7556 8.03331 4.66671 7.69776 4.66671 7.33331H3.33337C3.33337 7.93776 3.48226 8.49553 3.78004 9.00665C4.07782 9.51776 4.48226 9.9222 4.99337 10.22C5.50449 10.5178 6.06226 10.6666 6.66671 10.6666C7.27115 10.6666 7.82893 10.5178 8.34004 10.22C8.85115 9.9222 9.2556 9.51776 9.55337 9.00665C9.85115 8.49553 10 7.93776 10 7.33331ZM9.33337 5.99998C9.60893 5.99998 9.84449 5.9022 10.04 5.70665C10.2356 5.51109 10.3334 5.27553 10.3334 4.99998C10.3334 4.72442 10.2356 4.48887 10.04 4.29331C9.84449 4.09776 9.60893 3.99998 9.33337 3.99998C9.05782 3.99998 8.82226 4.09776 8.62671 4.29331C8.43115 4.48887 8.33337 4.72442 8.33337 4.99998C8.33337 5.27553 8.43115 5.51109 8.62671 5.70665C8.82226 5.9022 9.05782 5.99998 9.33337 5.99998ZM4.00004 5.99998C4.2756 5.99998 4.51115 5.9022 4.70671 5.70665C4.90226 5.51109 5.00004 5.27553 5.00004 4.99998C5.00004 4.72442 4.90226 4.48887 4.70671 4.29331C4.51115 4.09776 4.2756 3.99998 4.00004 3.99998C3.72448 3.99998 3.48893 4.09776 3.29337 4.29331C3.09782 4.48887 3.00004 4.72442 3.00004 4.99998C3.00004 5.27553 3.09782 5.51109 3.29337 5.70665C3.48893 5.9022 3.72448 5.99998 4.00004 5.99998Z" fill="#8A1D20"/>
</svg>
