<svg width="12" height="14" viewBox="0 0 12 14" fill="none" xmlns="http://www.w3.org/2000/svg">
<path d="M4.66671 7.66665V3.99998C4.66671 3.51998 4.78671 3.07553 5.02671 2.66665C5.26671 2.25776 5.59115 1.93331 6.00004 1.69331C6.40893 1.45331 6.85337 1.33331 7.33337 1.33331C7.81337 1.33331 8.25782 1.45331 8.66671 1.69331C9.0756 1.93331 9.40004 2.25776 9.64004 2.66665C9.88004 3.07553 10 3.51998 10 3.99998V7.66665C10 8.44887 9.80449 9.17776 9.41337 9.85331C9.03115 10.5111 8.51115 11.0311 7.85337 11.4133C7.17782 11.8044 6.44893 12 5.66671 12C4.88448 12 4.1556 11.8044 3.48004 11.4133C2.82226 11.0311 2.30226 10.5111 1.92004 9.85331C1.52893 9.17776 1.33337 8.44887 1.33337 7.66665V1.33331H4.00543e-05V7.66665C4.00543e-05 8.68887 0.257818 9.64442 0.773374 10.5333C1.27115 11.3866 1.94671 12.0622 2.80004 12.56C3.68893 13.0755 4.64448 13.3333 5.66671 13.3333C6.68893 13.3333 7.64448 13.0755 8.53337 12.56C9.38671 12.0622 10.0623 11.3866 10.56 10.5333C11.0756 9.64442 11.3334 8.68887 11.3334 7.66665V3.99998C11.3334 3.27998 11.1512 2.60887 10.7867 1.98665C10.4312 1.3822 9.95115 0.902202 9.34671 0.546646C8.72449 0.182201 8.05337 -2.09808e-05 7.33337 -2.09808e-05C6.61337 -2.09808e-05 5.94226 0.182201 5.32004 0.546646C4.7156 0.902202 4.2356 1.3822 3.88004 1.98665C3.5156 2.60887 3.33337 3.27998 3.33337 3.99998V7.66665C3.33337 8.09331 3.43782 8.48442 3.64671 8.83998C3.8556 9.19554 4.13782 9.47776 4.49337 9.68665C4.84893 9.89554 5.24004 9.99998 5.66671 9.99998C6.09337 9.99998 6.48449 9.89554 6.84004 9.68665C7.1956 9.47776 7.47782 9.19554 7.68671 8.83998C7.8956 8.48442 8.00004 8.09331 8.00004 7.66665V3.99998H6.66671V7.66665C6.66671 7.9422 6.56893 8.17776 6.37337 8.37331C6.17782 8.56887 5.94226 8.66665 5.66671 8.66665C5.39115 8.66665 5.1556 8.56887 4.96004 8.37331C4.76448 8.17776 4.66671 7.9422 4.66671 7.66665Z" fill="#8A1D20"/>
</svg>
